<?xml version="1.0" encoding="utf-8"?>
<!-- Generator: Adobe Illustrator 17.0.0, SVG Export Plug-In . SVG Version: 6.00 Build 0)  -->
<!DOCTYPE svg PUBLIC "-//W3C//DTD SVG 1.1//EN" "http://www.w3.org/Graphics/SVG/1.1/DTD/svg11.dtd">
<svg version="1.1" id="Layer_1" xmlns="http://www.w3.org/2000/svg" xmlns:xlink="http://www.w3.org/1999/xlink" x="0px" y="0px"
	 width="109.225px" height="35.246px" viewBox="0 0 109.225 35.246" enable-background="new 0 0 109.225 35.246"
	 xml:space="preserve">
<g>
	<path fill="#FFFFFF" stroke="#FFFFFF" stroke-miterlimit="10" d="M18.35,29.285c-1.476,1.852-3.737,2.778-6.78,2.778
		c-1.632,0-3.047-0.593-4.245-1.778c-1.198-1.185-1.797-2.658-1.797-4.42c0-2.111,0.923-3.895,2.768-5.352s4.199-2.186,7.062-2.186
		c0.777,0,1.658,0.168,2.642,0.505c0-3.367-1.503-5.051-4.507-5.051c-2.305,0-4.08,0.622-5.323,1.865l-1.554-3.089
		c0.699-0.57,1.667-1.059,2.904-1.467c1.237-0.408,2.419-0.612,3.545-0.612c3.018,0,5.209,0.687,6.576,2.059
		c1.366,1.373,2.05,3.555,2.05,6.547v7.46c0,1.826,0.544,3.044,1.632,3.652v1.846c-1.503,0-2.626-0.214-3.371-0.641
		C19.208,30.975,18.674,30.269,18.35,29.285z M18.001,21.456c-1.166-0.259-1.982-0.389-2.448-0.389
		c-1.865,0-3.387,0.479-4.565,1.438c-1.179,0.959-1.768,2.092-1.768,3.4c0,2.163,1.275,3.244,3.827,3.244
		c1.865,0,3.516-0.887,4.954-2.662V21.456z"/>
	<path fill="#FFFFFF" stroke="#FFFFFF" stroke-miterlimit="10" d="M33.567,32.063h-0.971L23.678,10.81h4.041l5.498,14.57
		l5.614-14.57h3.866L33.567,32.063z"/>
	<path fill="#FFFFFF" stroke="#FFFFFF" stroke-miterlimit="10" d="M55.875,29.285c-1.476,1.852-3.737,2.778-6.78,2.778
		c-1.632,0-3.047-0.593-4.245-1.778c-1.198-1.185-1.797-2.658-1.797-4.42c0-2.111,0.923-3.895,2.768-5.352s4.199-2.186,7.062-2.186
		c0.777,0,1.658,0.168,2.642,0.505c0-3.367-1.503-5.051-4.507-5.051c-2.305,0-4.08,0.622-5.323,1.865l-1.554-3.089
		c0.699-0.57,1.667-1.059,2.904-1.467c1.237-0.408,2.419-0.612,3.545-0.612c3.018,0,5.209,0.687,6.576,2.059
		c1.366,1.373,2.05,3.555,2.05,6.547v7.46c0,1.826,0.544,3.044,1.632,3.652v1.846c-1.503,0-2.626-0.214-3.371-0.641
		C56.732,30.975,56.198,30.269,55.875,29.285z M55.525,21.456c-1.166-0.259-1.982-0.389-2.448-0.389
		c-1.865,0-3.387,0.479-4.565,1.438c-1.179,0.959-1.768,2.092-1.768,3.4c0,2.163,1.275,3.244,3.827,3.244
		c1.865,0,3.516-0.887,4.954-2.662V21.456z"/>
	<path fill="#FFFFFF" stroke="#FFFFFF" stroke-miterlimit="10" d="M76.395,31.674V19.571c0-2.215-0.333-3.766-1-4.653
		c-0.667-0.887-1.784-1.331-3.351-1.331c-0.842,0-1.723,0.253-2.642,0.758c-0.92,0.505-1.625,1.127-2.118,1.865v15.464h-3.691
		V10.868h2.526l1.166,2.681c1.217-2.046,3.205-3.069,5.964-3.069c4.559,0,6.838,2.772,6.838,8.315v12.88H76.395z"/>
	<path fill="#FFFFFF" stroke="#FFFFFF" stroke-miterlimit="10" d="M85.686,31.674V13.976h-2.856v-3.108h6.547v20.806H85.686z
		 M87.707,3c0.634,0,1.175,0.223,1.622,0.67c0.447,0.447,0.67,0.981,0.67,1.603c0,0.635-0.223,1.175-0.67,1.622
		c-0.447,0.447-0.988,0.67-1.622,0.67c-0.622,0-1.156-0.223-1.603-0.67s-0.67-0.988-0.67-1.622c0-0.634,0.22-1.172,0.661-1.612
		C86.534,3.22,87.072,3,87.707,3z"/>
	<path fill="#FFFFFF" stroke="#FFFFFF" stroke-miterlimit="10" d="M92.453,30.431l1.302-3.497c2.059,1.347,3.717,2.02,4.973,2.02
		c2.279,0,3.419-0.958,3.419-2.875c0-1.373-1.101-2.551-3.303-3.536c-1.697-0.777-2.84-1.366-3.429-1.768
		c-0.59-0.401-1.101-0.858-1.535-1.37c-0.434-0.512-0.758-1.056-0.971-1.632c-0.214-0.576-0.321-1.195-0.321-1.855
		c0-1.71,0.622-3.043,1.865-4.002c1.243-0.958,2.868-1.438,4.876-1.438c1.515,0,3.426,0.479,5.731,1.438l-1.049,3.419
		c-1.464-1.166-2.934-1.748-4.41-1.748c-0.881,0-1.622,0.207-2.224,0.622c-0.602,0.415-0.903,0.939-0.903,1.574
		c0,1.334,0.758,2.344,2.273,3.031l2.642,1.204c1.619,0.738,2.798,1.58,3.536,2.526c0.738,0.945,1.107,2.131,1.107,3.555
		c0,1.865-0.654,3.325-1.962,4.381c-1.308,1.056-3.121,1.583-5.44,1.583C96.442,32.063,94.382,31.519,92.453,30.431z"/>
</g>
</svg>
